<mxfile host="65bd71144e">
    <diagram id="Q5oIXwlDFO6tyWQs4No6" name="Page-1">
        <mxGraphModel dx="869" dy="816" grid="1" gridSize="10" guides="1" tooltips="1" connect="1" arrows="1" fold="1" page="1" pageScale="1" pageWidth="850" pageHeight="1100" math="0" shadow="0">
            <root>
                <mxCell id="0"/>
                <mxCell id="1" parent="0"/>
                <mxCell id="29" value="&lt;span style=&quot;line-height: 1 ; font-size: 14px&quot;&gt;&lt;b&gt;F&lt;/b&gt;unctional Reqs -&amp;gt; &lt;b&gt;E&lt;/b&gt;stimation -&amp;gt; &lt;b&gt;D&lt;/b&gt;ata Model -&amp;gt; &lt;b&gt;A&lt;/b&gt;rchitecture -&amp;gt; &lt;b&gt;A&lt;/b&gt;PI -&amp;gt; &lt;b&gt;L&lt;/b&gt;ow L:ever Design -&amp;gt; &lt;b&gt;I&lt;/b&gt;mprove&lt;br style=&quot;font-size: 14px&quot;&gt;&lt;/span&gt;" style="text;html=1;align=left;verticalAlign=middle;resizable=0;points=[];autosize=1;strokeColor=none;fillColor=none;fontSize=14;fontFamily=Coming Soon;fontStyle=0" parent="1" vertex="1">
                    <mxGeometry x="170" y="95" width="650" height="20" as="geometry"/>
                </mxCell>
                <mxCell id="30" value="&lt;span style=&quot;font-size: 18px;&quot;&gt;System Design Condensed Notes&lt;/span&gt;" style="rounded=1;whiteSpace=wrap;html=1;shadow=0;glass=0;sketch=1;fillStyle=solid;fontFamily=Coming Soon;fontSource=https%3A%2F%2Ffonts.googleapis.com%2Fcss%3Ffamily%3DComing%2BSoon;fontSize=18;strokeWidth=2;fillColor=#f8cecc;strokeColor=#b85450;fontStyle=1" parent="1" vertex="1">
                    <mxGeometry x="20" y="20" width="810" height="60" as="geometry"/>
                </mxCell>
                <mxCell id="32" value="&lt;span style=&quot;font-size: 14px;&quot;&gt;Domain Name Systems (DNS)&lt;/span&gt;" style="rounded=1;whiteSpace=wrap;html=1;shadow=0;glass=0;sketch=1;fillStyle=solid;fontFamily=Coming Soon;fontSource=https%3A%2F%2Ffonts.googleapis.com%2Fcss%3Ffamily%3DComing%2BSoon;fontSize=14;strokeWidth=2;fillColor=#dae8fc;strokeColor=#6c8ebf;fontStyle=1;" parent="1" vertex="1">
                    <mxGeometry x="20" y="130" width="400" height="30" as="geometry"/>
                </mxCell>
                <mxCell id="33" value="&lt;span style=&quot;font-size: 14px&quot;&gt;FEDAALI&lt;/span&gt;" style="rounded=1;whiteSpace=wrap;html=1;shadow=0;glass=0;sketch=1;fillStyle=solid;fontFamily=Coming Soon;fontSource=https%3A%2F%2Ffonts.googleapis.com%2Fcss%3Ffamily%3DComing%2BSoon;fontSize=14;strokeWidth=2;fillColor=#dae8fc;strokeColor=#6c8ebf;fontStyle=1;" parent="1" vertex="1">
                    <mxGeometry x="20" y="90" width="140" height="30" as="geometry"/>
                </mxCell>
                <mxCell id="35" value="&lt;span style=&quot;font-size: 14px;&quot;&gt;Domain Name Systems (DNS)&lt;/span&gt;" style="rounded=1;whiteSpace=wrap;html=1;shadow=0;glass=0;sketch=1;fillStyle=solid;fontFamily=Coming Soon;fontSource=https%3A%2F%2Ffonts.googleapis.com%2Fcss%3Ffamily%3DComing%2BSoon;fontSize=14;strokeWidth=2;fillColor=#dae8fc;strokeColor=#6c8ebf;fontStyle=1;" parent="1" vertex="1">
                    <mxGeometry x="430" y="130" width="400" height="30" as="geometry"/>
                </mxCell>
                <mxCell id="36" value="Internet Naming Service to map human-friendly domain names to machine readable IP addresses" style="rounded=1;whiteSpace=wrap;html=1;shadow=0;glass=0;sketch=1;fillStyle=solid;fontFamily=Coming Soon;fontSource=https%3A%2F%2Ffonts.googleapis.com%2Fcss%3Ffamily%3DComing%2BSoon;fontSize=14;strokeWidth=2;align=left;strokeColor=none;fillColor=none;" parent="1" vertex="1">
                    <mxGeometry x="20" y="160" width="400" height="60" as="geometry"/>
                </mxCell>
            </root>
        </mxGraphModel>
    </diagram>
</mxfile>